<svg width="512" height="512" viewBox="0 0 512 512" fill="none" xmlns="http://www.w3.org/2000/svg" role="img" aria-label="Hangly favicon">
  <defs>
    <linearGradient id="bg" x1="96" y1="64" x2="432" y2="448" gradientUnits="userSpaceOnUse">
      <stop offset="0" stop-color="#2563eb" />
      <stop offset="1" stop-color="#06b6d4" />
    </linearGradient>
    <linearGradient id="card" x1="140" y1="120" x2="372" y2="392" gradientUnits="userSpaceOnUse">
      <stop offset="0" stop-color="#ffffff" />
      <stop offset="1" stop-color="#e2e8f0" />
    </linearGradient>
    <filter id="shadow" x="88" y="88" width="336" height="352" filterUnits="userSpaceOnUse" color-interpolation-filters="sRGB">
      <feDropShadow dx="0" dy="18" stdDeviation="18" flood-color="#0f172a" flood-opacity="0.22" />
    </filter>
  </defs>
  <rect x="40" y="40" width="432" height="432" rx="120" fill="url(#bg)" />
  <path d="M108 140C108 117.909 125.909 100 148 100H364C386.091 100 404 117.909 404 140V372C404 394.091 386.091 412 364 412H148C125.909 412 108 394.091 108 372V140Z" fill="rgba(255,255,255,0.10)" />
  <g filter="url(#shadow)">
    <rect x="114" y="120" width="284" height="296" rx="62" fill="url(#card)" />
  </g>
  <rect x="114" y="120" width="284" height="82" rx="62" fill="#1d4ed8" />
  <rect x="114" y="170" width="284" height="32" fill="#1e40af" opacity="0.95" />
  <rect x="168" y="96" width="28" height="72" rx="14" fill="#dbeafe" />
  <rect x="316" y="96" width="28" height="72" rx="14" fill="#dbeafe" />
  <rect x="154" y="246" width="82" height="34" rx="17" fill="#93c5fd" />
  <rect x="154" y="300" width="82" height="34" rx="17" fill="#60a5fa" />
  <rect x="256" y="246" width="96" height="34" rx="17" fill="#bfdbfe" />
  <rect x="256" y="300" width="96" height="34" rx="17" fill="#93c5fd" />
  <path d="M314 334C314 317.431 327.431 304 344 304H362C378.569 304 392 317.431 392 334V351.5C392 368.069 378.569 381.5 362 381.5H351.5L333.5 398.5V381.5H344C327.431 381.5 314 368.069 314 351.5V334Z" fill="#ffffff" />
  <circle cx="344" cy="342" r="7" fill="#2563eb" />
  <circle cx="364" cy="342" r="7" fill="#06b6d4" />
</svg>
